<svg width="312" height="262" viewBox="0 0 312 262" fill="none" xmlns="http://www.w3.org/2000/svg">
<path d="M157.773 215.064C157.572 215.064 157.37 215.053 157.17 215.032L110.983 210.097C110.642 210.061 110.311 209.958 110.01 209.794C109.709 209.629 109.443 209.407 109.228 209.14C109.012 208.873 108.852 208.567 108.755 208.237C108.658 207.908 108.627 207.563 108.663 207.222L109.293 201.323C109.367 200.635 109.711 200.004 110.25 199.569C110.789 199.134 111.478 198.93 112.166 199.003L158.354 203.938C159.773 204.089 161.079 204.779 162.004 205.865C162.93 206.951 163.404 208.351 163.33 209.776C163.255 211.202 162.638 212.544 161.604 213.528C160.57 214.511 159.199 215.061 157.773 215.064Z" fill="white"/>
<path d="M134.603 257.19H85.188C84.4958 257.189 83.8321 256.914 83.3426 256.424C82.8531 255.934 82.5778 255.27 82.577 254.577V248.645C82.5778 247.952 82.8531 247.288 83.3426 246.799C83.8321 246.309 84.4958 246.033 85.188 246.033H134.603C135.295 246.033 135.959 246.309 136.448 246.799C136.938 247.288 137.213 247.952 137.214 248.645V254.577C137.213 255.27 136.938 255.934 136.448 256.424C135.959 256.914 135.295 257.189 134.603 257.19Z" fill="white"/>
<path d="M159.669 255.146C159.39 255.146 159.112 255.101 158.847 255.013L111.924 239.511C111.267 239.293 110.723 238.823 110.412 238.205C110.1 237.586 110.047 236.869 110.263 236.211L112.122 230.578C112.339 229.92 112.809 229.375 113.427 229.064C114.046 228.752 114.763 228.699 115.42 228.916L162.344 244.419C163.001 244.636 163.545 245.106 163.856 245.725C164.167 246.343 164.221 247.06 164.004 247.718L162.145 253.352C161.973 253.873 161.641 254.327 161.197 254.649C160.752 254.971 160.218 255.145 159.669 255.146Z" fill="white"/>
<path d="M97.578 257.279C97.5321 257.279 97.4861 257.278 97.4399 257.275C97.0973 257.259 96.7614 257.174 96.4517 257.026C96.1419 256.879 95.8646 256.671 95.6356 256.416L91.6654 252.01C91.2024 251.495 90.9625 250.817 90.9982 250.126C91.034 249.434 91.3425 248.785 91.856 248.32L112.915 229.321C113.43 228.857 114.107 228.617 114.798 228.652C115.49 228.688 116.139 228.997 116.603 229.512L120.573 233.918C121.036 234.433 121.276 235.11 121.24 235.802C121.204 236.494 120.896 237.143 120.382 237.608L99.3233 256.607C98.8454 257.04 98.2231 257.28 97.578 257.279Z" fill="white"/>
<path d="M163.307 188.353C174.621 188.353 183.794 179.175 183.794 167.854C183.794 156.533 174.621 147.355 163.307 147.355C151.992 147.355 142.82 156.533 142.82 167.854C142.82 179.175 151.992 188.353 163.307 188.353Z" fill="white"/>
<path d="M173.301 257.284H129.869C129.41 257.286 128.959 257.166 128.561 256.937C128.163 256.708 127.832 256.378 127.603 255.981C127.373 255.583 127.253 255.132 127.254 254.672C127.255 254.213 127.377 253.762 127.608 253.365L161.046 195.416C161.275 195.019 161.604 194.689 162.001 194.46C162.398 194.23 162.848 194.11 163.307 194.11C163.765 194.11 164.215 194.23 164.612 194.46C165.009 194.689 165.339 195.019 165.568 195.416L187.284 233.051C188.701 235.507 189.447 238.293 189.447 241.129C189.447 243.965 188.701 246.751 187.284 249.206C185.867 251.662 183.829 253.702 181.374 255.12C178.92 256.538 176.136 257.284 173.301 257.284Z" fill="#D635A9"/>
<path d="M146.42 175.655C145.092 175.618 143.44 175.572 142.166 174.641C141.787 174.353 141.476 173.985 141.254 173.563C141.032 173.142 140.904 172.677 140.881 172.201C140.858 171.862 140.913 171.523 141.043 171.21C141.172 170.897 141.373 170.618 141.628 170.395C142.293 169.832 143.264 169.701 144.311 170.008L143.226 162.08L144.022 161.971L145.297 171.292L144.632 170.986C143.862 170.633 142.804 170.453 142.147 171.009C141.985 171.154 141.86 171.335 141.779 171.536C141.699 171.738 141.666 171.956 141.684 172.172C141.703 172.527 141.799 172.873 141.964 173.187C142.129 173.501 142.359 173.775 142.64 173.992C143.631 174.716 144.948 174.81 146.443 174.852L146.42 175.655Z" fill="#D635A9"/>
<path d="M152.948 162.764H148.621V163.568H152.948V162.764Z" fill="#2F2E41"/>
<path d="M175.454 143.679C176.023 141.352 177.077 139.172 178.548 137.283C180.019 135.393 181.873 133.836 183.988 132.715C186.157 131.599 188.548 130.981 190.985 130.906C193.423 130.83 195.847 131.298 198.081 132.277C200.369 133.258 202.401 134.752 204.02 136.643C205.639 138.535 206.802 140.774 207.418 143.187C208.053 145.614 208.14 148.153 207.675 150.618C207.104 153.23 205.996 155.694 204.422 157.854C202.835 160.153 200.969 162.24 199.257 164.443C197.537 166.651 195.971 168.974 194.57 171.396C190.349 178.695 187.673 186.784 186.707 195.161C186.38 197.692 186.319 200.249 186.523 202.792C186.984 207.73 188.896 212.567 193.284 215.254C195.618 216.683 198.31 217.42 200.974 217.936C203.964 218.57 207.024 218.809 210.075 218.648C215.235 218.281 220.397 216.127 223.393 211.74C224.057 210.763 224.576 209.696 224.935 208.571C225.174 207.831 224.011 207.514 223.773 208.25C222.186 213.173 217.37 216.207 212.496 217.133C209.46 217.641 206.361 217.638 203.327 217.124C200.57 216.712 197.729 216.142 195.203 214.925C192.907 213.853 191.003 212.092 189.756 209.886C188.629 207.757 187.946 205.42 187.75 203.018C187.213 197.759 188.087 192.315 189.397 187.228C190.798 181.784 192.947 176.561 195.783 171.708C197.2 169.283 198.786 166.962 200.529 164.76C202.255 162.583 204.097 160.489 205.654 158.182C207.191 156.007 208.274 153.543 208.837 150.939C209.317 148.44 209.272 145.869 208.706 143.388C208.16 140.94 207.092 138.639 205.574 136.643C204.056 134.647 202.125 133.003 199.913 131.823C195.571 129.531 190.282 128.983 185.638 130.671C181.131 132.335 177.463 135.711 175.43 140.066C174.942 141.123 174.56 142.225 174.292 143.358C174.114 144.113 175.276 144.435 175.454 143.679Z" fill="white"/>
<path d="M179.369 144.659C180.125 142.505 181.647 140.704 183.645 139.602C185.644 138.5 187.978 138.174 190.202 138.686C190.956 138.862 191.278 137.7 190.522 137.523C187.989 136.901 185.315 137.257 183.032 138.521C180.75 139.784 179.027 141.861 178.207 144.338C177.954 145.074 179.118 145.39 179.369 144.659Z" fill="#D635A9"/>
<path d="M177.52 150.355C177.221 150.354 176.925 150.293 176.651 150.175L171.115 147.794C170.848 147.68 170.607 147.513 170.405 147.306C170.202 147.098 170.043 146.852 169.935 146.582C169.828 146.312 169.774 146.024 169.778 145.734C169.782 145.444 169.843 145.157 169.957 144.89C170.072 144.623 170.238 144.382 170.446 144.179C170.654 143.977 170.899 143.817 171.169 143.71C171.438 143.602 171.726 143.549 172.016 143.553C172.307 143.556 172.593 143.617 172.86 143.732L178.396 146.113C178.863 146.314 179.247 146.67 179.482 147.122C179.718 147.573 179.79 148.092 179.687 148.591C179.584 149.09 179.312 149.538 178.917 149.859C178.523 150.18 178.029 150.355 177.52 150.355Z" fill="#D635A9"/>
<path d="M297.051 257.613H0.47831C0.351457 257.613 0.229802 257.563 0.140104 257.473C0.0504061 257.383 1.52588e-05 257.261 1.52588e-05 257.134C1.52588e-05 257.008 0.0504061 256.886 0.140104 256.796C0.229802 256.706 0.351457 256.656 0.47831 256.656H297.051C297.178 256.656 297.3 256.706 297.39 256.796C297.479 256.886 297.53 257.008 297.53 257.134C297.53 257.261 297.479 257.383 297.39 257.473C297.3 257.563 297.178 257.613 297.051 257.613Z" fill="white"/>
<path d="M169.412 160.785L166.902 144.511C166.797 143.831 165.759 143.426 164.584 143.607L159.709 144.36C158.534 144.542 157.666 145.241 157.771 145.921L160.174 161.504C158.681 162.626 157.592 164.203 157.071 165.997C156.55 167.792 156.625 169.707 157.284 171.456C157.944 173.204 159.152 174.691 160.729 175.693C162.305 176.696 164.164 177.159 166.026 177.015C167.888 176.87 169.653 176.125 171.055 174.891C172.458 173.657 173.422 172.001 173.804 170.171C174.186 168.342 173.964 166.438 173.172 164.746C172.38 163.053 171.061 161.664 169.412 160.785Z" fill="#CCCCCC"/>
<path d="M165.349 172.212C167.448 172.212 169.15 170.51 169.15 168.41C169.15 166.31 167.448 164.608 165.349 164.608C163.251 164.608 161.549 166.31 161.549 168.41C161.549 170.51 163.251 172.212 165.349 172.212Z" fill="#FF6584"/>
<path d="M99.3226 214.979C98.1687 214.981 97.0524 214.568 96.1785 213.814L73.3483 194.078C72.8699 193.665 72.4777 193.161 72.1939 192.596C71.9101 192.031 71.7404 191.415 71.6944 190.784C71.6484 190.153 71.727 189.52 71.9258 188.919C72.1245 188.319 72.4395 187.763 72.8528 187.285C72.9292 187.196 73.0088 187.111 73.0915 187.028L96.7437 163.362C97.1906 162.915 97.7213 162.56 98.3053 162.318C98.8893 162.076 99.5153 161.951 100.147 161.951C100.78 161.951 101.406 162.076 101.99 162.318C102.574 162.56 103.104 162.915 103.551 163.362L124.828 184.651C125.73 185.555 126.236 186.78 126.236 188.057C126.236 189.334 125.73 190.559 124.828 191.463L102.729 213.575C102.282 214.021 101.75 214.375 101.166 214.616C100.581 214.857 99.9548 214.98 99.3226 214.979ZM73.6595 187.596C73.5907 187.665 73.5243 187.737 73.4607 187.81C73.1164 188.209 72.8539 188.672 72.6884 189.172C72.5228 189.672 72.4573 190.2 72.4956 190.726C72.534 191.251 72.6754 191.764 72.9118 192.235C73.1482 192.706 73.475 193.125 73.8735 193.47L96.7038 213.205C97.4719 213.865 98.4601 214.21 99.4714 214.173C100.483 214.136 101.443 213.72 102.161 213.006L124.26 190.894C125.011 190.141 125.433 189.121 125.433 188.057C125.433 186.993 125.011 185.973 124.26 185.22L102.983 163.93C102.611 163.558 102.169 163.262 101.682 163.06C101.196 162.859 100.674 162.755 100.147 162.755C99.6208 162.755 99.0993 162.859 98.6128 163.06C98.1262 163.262 97.6841 163.558 97.3118 163.93L73.6595 187.596Z" fill="white"/>
<path d="M97.9511 207.905L79.4806 191.085L100.75 169.804L118.39 187.454L97.9511 207.905ZM80.6441 191.058L97.925 206.794L117.254 187.454L100.75 170.94L80.6441 191.058Z" fill="white"/>
<path d="M99.344 198.552C104.804 198.552 109.23 194.123 109.23 188.66C109.23 183.197 104.804 178.768 99.344 178.768C93.884 178.768 89.4578 183.197 89.4578 188.66C89.4578 194.123 93.884 198.552 99.344 198.552Z" fill="#CCCCCC"/>
<path d="M104.205 186.694C105.384 187.803 105.446 191.793 103.646 193.71C101.846 195.627 98.8646 194.745 97.6856 193.636C96.5066 192.528 97.5761 191.613 99.3762 189.696C101.176 187.779 103.026 185.586 104.205 186.694Z" fill="white"/>
<path d="M94.1683 191.752C95.7861 191.752 97.0975 190.44 97.0975 188.821C97.0975 187.202 95.7861 185.89 94.1683 185.89C92.5505 185.89 91.239 187.202 91.239 188.821C91.239 190.44 92.5505 191.752 94.1683 191.752Z" fill="#3F3D56"/>
<path d="M99.4336 186.145C101.051 186.145 102.363 184.833 102.363 183.214C102.363 181.596 101.051 180.283 99.4336 180.283C97.8158 180.283 96.5044 181.596 96.5044 183.214C96.5044 184.833 97.8158 186.145 99.4336 186.145Z" fill="#3F3D56"/>
<path d="M165.712 262C165.057 261.999 164.426 261.751 163.945 261.306C163.463 260.862 163.167 260.252 163.114 259.599L159.355 213.274C159.295 212.544 159.381 211.809 159.605 211.112C159.83 210.414 160.189 209.768 160.663 209.21C161.137 208.651 161.717 208.192 162.368 207.858C163.02 207.524 163.731 207.321 164.461 207.262C165.19 207.203 165.925 207.288 166.622 207.512C167.319 207.737 167.964 208.097 168.522 208.571C169.08 209.046 169.539 209.625 169.873 210.277C170.207 210.929 170.41 211.641 170.469 212.371L174.228 258.696C174.283 259.386 174.062 260.07 173.614 260.598C173.166 261.126 172.527 261.454 171.837 261.511L165.927 261.991C165.855 261.997 165.783 262 165.712 262Z" fill="white"/>
</svg>
